<svg width="1440" height="1154" viewBox="0 0 1440 1154" fill="none" xmlns="http://www.w3.org/2000/svg">
<path d="M143 351C85.8 414.2 23.8333 399.667 0 384.5L-59 308L-54 1.5L287.5 -84.5L630 -3.5C582.4 11.7 571 23 564.5 52C553.49 101.12 525.333 156 511.5 169.5C457.5 243 363.5 215.5 307 214.5C250.5 213.5 212.5 229.5 191.5 271C175.499 302.622 154 338.167 143 351Z" fill="url(#paint0_linear_261_6)"/>
<path d="M1351.93 825.203C1365.93 891.603 1378 904.203 1386.93 905.703C1435.28 913.822 1454.93 837.703 1510.93 886.203C1566.93 934.703 1560.43 1197.7 1439.43 1147.2C1318.43 1096.7 1313.43 1035.7 1303.43 1011.7C1295.43 992.503 1269.77 970.036 1257.93 961.203C1203.13 912.803 1241.43 844.37 1267.43 816.203C1289.77 791.537 1337.93 758.803 1351.93 825.203Z" fill="url(#paint1_linear_261_6)"/>
<defs>
<linearGradient id="paint0_linear_261_6" x1="536.5" y1="-84" x2="54.5" y2="398" gradientUnits="userSpaceOnUse">
<stop stop-color="#40AF79"/>
<stop offset="1" stop-color="#124757"/>
</linearGradient>
<linearGradient id="paint1_linear_261_6" x1="1348" y1="785.703" x2="1281.69" y2="1118.24" gradientUnits="userSpaceOnUse">
<stop stop-color="#40AF79"/>
<stop offset="1" stop-color="#124757"/>
</linearGradient>
</defs>
</svg>
