<?xml version="1.0" encoding="utf-8"?><svg xmlns="http://www.w3.org/2000/svg" xmlns:xlink="http://www.w3.org/1999/xlink"><symbol fill="none" viewBox="0 0 24 24" id="bx_bx-calendar" xmlns="http://www.w3.org/2000/svg"><path d="M7 11h2v2H7v-2zm0 4h2v2H7v-2zm4-4h2v2h-2v-2zm0 4h2v2h-2v-2zm4-4h2v2h-2v-2zm0 4h2v2h-2v-2z" fill="#5F5F5F"/><path d="M5 22h14c1.103 0 2-.897 2-2V6c0-1.103-.897-2-2-2h-2V2h-2v2H9V2H7v2H5c-1.103 0-2 .897-2 2v14c0 1.103.897 2 2 2zM19 8l.001 12H5V8h14z" fill="#5F5F5F"/></symbol><symbol fill="none" viewBox="0 0 24 24" id="bx_bx-clear" xmlns="http://www.w3.org/2000/svg"><path d="M17.657 16.243L13.414 12l4.243-4.243-1.414-1.414L12 10.586 7.757 6.343 6.343 7.757 10.586 12l-4.243 4.243 1.414 1.414L12 13.414l4.243 4.243 1.414-1.414z" fill="#5F5F5F"/></symbol><symbol fill="none" viewBox="0 0 18 18" id="comment-fill" xmlns="http://www.w3.org/2000/svg"><path d="M16.5 3c0-.825-.675-1.5-1.5-1.5H3c-.825 0-1.5.675-1.5 1.5v9c0 .825.675 1.5 1.5 1.5h10.5l3 3V3z" fill="#000"/></symbol><symbol fill="none" viewBox="0 0 22 22" id="filter-grid" xmlns="http://www.w3.org/2000/svg"><path fill="#C8C8C8" d="M0 0h6v6H0zM8 0h6v6H8zM16 0h6v6h-6zM0 8h6v6H0zM0 16h6v6H0zM8 8h6v6H8zM8 16h6v6H8zM16 8h6v6h-6zM16 16h6v6h-6z"/></symbol><symbol fill="none" viewBox="0 0 24 22" id="filter-row" xmlns="http://www.w3.org/2000/svg"><path fill="#3D8EDA" d="M0 0h6v6H0zM0 8h6v6H0zM0 16h6v6H0zM9 10h15v2H9zM9 18h15v2H9zM9 2h15v2H9z"/></symbol><symbol fill="none" viewBox="0 0 18 18" id="heart-fill" xmlns="http://www.w3.org/2000/svg"><path d="M1.5 6.3a4.05 4.05 0 014.125-4.05A4.493 4.493 0 019 3.75a4.493 4.493 0 013.375-1.5A4.05 4.05 0 0116.5 6.3c0 4.017-4.784 7.05-7.5 9.45-2.71-2.42-7.5-5.43-7.5-9.45z" fill="#000"/></symbol><symbol fill="none" viewBox="0 0 138 138" id="logo" xmlns="http://www.w3.org/2000/svg"><path d="M56.5 7.217a25 25 0 0125 0l34.756 20.066a25 25 0 0112.5 21.65v40.133a25 25 0 01-12.5 21.651L81.5 130.783a25 25 0 01-25 0l-34.756-20.066a25 25 0 01-12.5-21.65V48.933a25 25 0 0112.5-21.65L56.5 7.216z" fill="#fff"/><path d="M128.756 88.532v.534a25 25 0 01-12.5 21.651L81.5 130.783a25 25 0 01-25 0l-34.756-20.066a25.18 25.18 0 01-1.668-1.053L17.5 101 26 68l7.5-12 22 22.5 27-40 46.256 50.032z" fill="#066C61"/><path d="M18.173 108.216a25.007 25.007 0 01-7.634-11.207L10.5 96.5c1.167-13 6.2-39.7 17-42.5 14-3.63 21 42.5 21 42.5s6.22-64.244 25.5-63c15.5 1 21.5 33 17.5 91.5l-.02.022-9.98 5.761a24.983 24.983 0 01-10.908 3.299c6.974-12.139 6.314-60.063 2.908-77.582-1.992 5.516-3.561 14-5.254 23.157-3.833 20.725-8.302 44.889-19.746 45.843a4.793 4.793 0 01-1.26-.063l-3.786-2.186C36.248 116.272 30.68 94.856 28.5 83c-.397 10.72-4.439 22.982-6.455 27.891l-.3-.174c-.262-.151-.52-.306-.773-.465l-2.8-2.036z" fill="#B3DBC9"/></symbol></svg>